<mxfile host="app.diagrams.net" agent="Mozilla/5.0 (Windows NT 10.0; Win64; x64) AppleWebKit/537.36 (KHTML, like Gecko) Chrome/129.0.0.0 Safari/537.36" version="26.1.3">
  <diagram name="第 1 页" id="IIF3PYmxGIQ2WKmlQFw2">
    <mxGraphModel dx="1420" dy="724" grid="1" gridSize="10" guides="1" tooltips="1" connect="1" arrows="1" fold="1" page="1" pageScale="1" pageWidth="827" pageHeight="1169" math="0" shadow="0">
      <root>
        <mxCell id="0" />
        <mxCell id="1" parent="0" />
        <mxCell id="mqvMD9u0rO13LE9v99cT-2" value="" style="rounded=0;whiteSpace=wrap;html=1;" vertex="1" parent="1">
          <mxGeometry x="707" width="120" height="60" as="geometry" />
        </mxCell>
        <mxCell id="mqvMD9u0rO13LE9v99cT-3" value="" style="rounded=0;whiteSpace=wrap;html=1;" vertex="1" parent="1">
          <mxGeometry width="80" height="60" as="geometry" />
        </mxCell>
        <mxCell id="mqvMD9u0rO13LE9v99cT-8" style="edgeStyle=orthogonalEdgeStyle;rounded=0;orthogonalLoop=1;jettySize=auto;html=1;entryX=0;entryY=0.5;entryDx=0;entryDy=0;" edge="1" parent="1" source="mqvMD9u0rO13LE9v99cT-4" target="mqvMD9u0rO13LE9v99cT-6">
          <mxGeometry relative="1" as="geometry" />
        </mxCell>
        <mxCell id="mqvMD9u0rO13LE9v99cT-9" style="edgeStyle=orthogonalEdgeStyle;rounded=0;orthogonalLoop=1;jettySize=auto;html=1;" edge="1" parent="1" source="mqvMD9u0rO13LE9v99cT-4">
          <mxGeometry relative="1" as="geometry">
            <mxPoint x="110" y="180" as="targetPoint" />
          </mxGeometry>
        </mxCell>
        <mxCell id="mqvMD9u0rO13LE9v99cT-4" value="&lt;span style=&quot;font-size: 10px;&quot;&gt;input&lt;/span&gt;" style="rounded=0;whiteSpace=wrap;html=1;" vertex="1" parent="1">
          <mxGeometry x="30" y="110" width="50" height="20" as="geometry" />
        </mxCell>
        <mxCell id="mqvMD9u0rO13LE9v99cT-24" style="edgeStyle=orthogonalEdgeStyle;rounded=0;orthogonalLoop=1;jettySize=auto;html=1;entryX=0;entryY=0.5;entryDx=0;entryDy=0;" edge="1" parent="1" source="mqvMD9u0rO13LE9v99cT-5" target="mqvMD9u0rO13LE9v99cT-22">
          <mxGeometry relative="1" as="geometry" />
        </mxCell>
        <mxCell id="mqvMD9u0rO13LE9v99cT-5" value="&lt;font style=&quot;font-size: 10px;&quot;&gt;offset&lt;/font&gt;" style="rounded=0;whiteSpace=wrap;html=1;" vertex="1" parent="1">
          <mxGeometry x="170" y="183" width="50" height="20" as="geometry" />
        </mxCell>
        <mxCell id="mqvMD9u0rO13LE9v99cT-23" style="edgeStyle=orthogonalEdgeStyle;rounded=0;orthogonalLoop=1;jettySize=auto;html=1;" edge="1" parent="1" source="mqvMD9u0rO13LE9v99cT-6" target="mqvMD9u0rO13LE9v99cT-22">
          <mxGeometry relative="1" as="geometry" />
        </mxCell>
        <mxCell id="mqvMD9u0rO13LE9v99cT-6" value="&lt;font style=&quot;font-size: 10px;&quot;&gt;input_proj&amp;nbsp;&lt;/font&gt;" style="rounded=0;whiteSpace=wrap;html=1;" vertex="1" parent="1">
          <mxGeometry x="140" y="110" width="50" height="20" as="geometry" />
        </mxCell>
        <mxCell id="mqvMD9u0rO13LE9v99cT-7" value="w" style="text;html=1;align=center;verticalAlign=middle;resizable=0;points=[];autosize=1;strokeColor=none;fillColor=none;" vertex="1" parent="1">
          <mxGeometry x="150" y="80" width="30" height="30" as="geometry" />
        </mxCell>
        <mxCell id="mqvMD9u0rO13LE9v99cT-11" style="edgeStyle=orthogonalEdgeStyle;rounded=0;orthogonalLoop=1;jettySize=auto;html=1;entryX=0;entryY=0.5;entryDx=0;entryDy=0;" edge="1" parent="1" source="mqvMD9u0rO13LE9v99cT-10" target="mqvMD9u0rO13LE9v99cT-5">
          <mxGeometry relative="1" as="geometry" />
        </mxCell>
        <mxCell id="mqvMD9u0rO13LE9v99cT-13" style="edgeStyle=orthogonalEdgeStyle;rounded=0;orthogonalLoop=1;jettySize=auto;html=1;entryX=0;entryY=0.5;entryDx=0;entryDy=0;" edge="1" parent="1" source="mqvMD9u0rO13LE9v99cT-10" target="mqvMD9u0rO13LE9v99cT-12">
          <mxGeometry relative="1" as="geometry" />
        </mxCell>
        <mxCell id="mqvMD9u0rO13LE9v99cT-10" value="x1" style="text;html=1;align=center;verticalAlign=middle;resizable=0;points=[];autosize=1;strokeColor=none;fillColor=none;" vertex="1" parent="1">
          <mxGeometry x="90" y="178" width="40" height="30" as="geometry" />
        </mxCell>
        <mxCell id="mqvMD9u0rO13LE9v99cT-25" style="edgeStyle=orthogonalEdgeStyle;rounded=0;orthogonalLoop=1;jettySize=auto;html=1;entryX=0.5;entryY=1;entryDx=0;entryDy=0;" edge="1" parent="1" source="mqvMD9u0rO13LE9v99cT-12" target="mqvMD9u0rO13LE9v99cT-22">
          <mxGeometry relative="1" as="geometry" />
        </mxCell>
        <mxCell id="mqvMD9u0rO13LE9v99cT-12" value="&lt;font style=&quot;font-size: 10px;&quot;&gt;mask+soft&lt;/font&gt;" style="rounded=0;whiteSpace=wrap;html=1;" vertex="1" parent="1">
          <mxGeometry x="170" y="220" width="50" height="20" as="geometry" />
        </mxCell>
        <mxCell id="mqvMD9u0rO13LE9v99cT-19" value="&lt;font style=&quot;font-size: 10px;&quot;&gt;offset shape : n h w gx2&lt;/font&gt;" style="text;html=1;align=center;verticalAlign=middle;resizable=0;points=[];autosize=1;strokeColor=none;fillColor=none;" vertex="1" parent="1">
          <mxGeometry x="240" y="170" width="130" height="30" as="geometry" />
        </mxCell>
        <mxCell id="mqvMD9u0rO13LE9v99cT-21" value="&lt;font style=&quot;font-size: 10px;&quot;&gt;mask shape : n h w g&lt;/font&gt;" style="text;html=1;align=center;verticalAlign=middle;resizable=0;points=[];autosize=1;strokeColor=none;fillColor=none;" vertex="1" parent="1">
          <mxGeometry x="240" y="220" width="120" height="30" as="geometry" />
        </mxCell>
        <mxCell id="mqvMD9u0rO13LE9v99cT-22" value="&lt;font style=&quot;font-size: 10px;&quot;&gt;dcv3&lt;/font&gt;" style="rounded=0;whiteSpace=wrap;html=1;fillColor=#ffe6cc;strokeColor=#d79b00;" vertex="1" parent="1">
          <mxGeometry x="389" y="183" width="50" height="20" as="geometry" />
        </mxCell>
        <mxCell id="mqvMD9u0rO13LE9v99cT-26" value="&lt;font style=&quot;font-size: 10px;&quot;&gt;input shape : n h w c&lt;/font&gt;" style="text;html=1;align=center;verticalAlign=middle;resizable=0;points=[];autosize=1;strokeColor=none;fillColor=none;" vertex="1" parent="1">
          <mxGeometry x="240" y="100" width="120" height="30" as="geometry" />
        </mxCell>
        <mxCell id="mqvMD9u0rO13LE9v99cT-27" value="&lt;font style=&quot;font-size: 10px;&quot;&gt;dcv3&lt;/font&gt;" style="rounded=0;whiteSpace=wrap;html=1;fillColor=#ffe6cc;strokeColor=#d79b00;" vertex="1" parent="1">
          <mxGeometry x="15" y="280" width="50" height="20" as="geometry" />
        </mxCell>
        <mxCell id="mqvMD9u0rO13LE9v99cT-34" style="edgeStyle=orthogonalEdgeStyle;rounded=0;orthogonalLoop=1;jettySize=auto;html=1;" edge="1" parent="1" source="mqvMD9u0rO13LE9v99cT-28" target="mqvMD9u0rO13LE9v99cT-33">
          <mxGeometry relative="1" as="geometry" />
        </mxCell>
        <mxCell id="mqvMD9u0rO13LE9v99cT-28" value="&lt;font style=&quot;font-size: 10px;&quot;&gt;input&lt;/font&gt;" style="rounded=0;whiteSpace=wrap;html=1;" vertex="1" parent="1">
          <mxGeometry x="20" y="340" width="50" height="20" as="geometry" />
        </mxCell>
        <mxCell id="mqvMD9u0rO13LE9v99cT-29" value="&lt;font style=&quot;font-size: 10px;&quot;&gt;offset&lt;/font&gt;" style="rounded=0;whiteSpace=wrap;html=1;" vertex="1" parent="1">
          <mxGeometry x="20" y="380" width="50" height="20" as="geometry" />
        </mxCell>
        <mxCell id="mqvMD9u0rO13LE9v99cT-30" value="&lt;font style=&quot;font-size: 10px;&quot;&gt;mask&lt;/font&gt;" style="rounded=0;whiteSpace=wrap;html=1;" vertex="1" parent="1">
          <mxGeometry x="20" y="420" width="50" height="20" as="geometry" />
        </mxCell>
        <mxCell id="mqvMD9u0rO13LE9v99cT-31" value="&lt;font style=&quot;font-size: 10px;&quot;&gt;kernel size&lt;/font&gt;" style="rounded=0;whiteSpace=wrap;html=1;" vertex="1" parent="1">
          <mxGeometry x="20" y="460" width="50" height="20" as="geometry" />
        </mxCell>
        <mxCell id="mqvMD9u0rO13LE9v99cT-32" value="&lt;font style=&quot;font-size: 10px;&quot;&gt;group&lt;/font&gt;" style="rounded=0;whiteSpace=wrap;html=1;" vertex="1" parent="1">
          <mxGeometry x="20" y="500" width="50" height="20" as="geometry" />
        </mxCell>
        <mxCell id="mqvMD9u0rO13LE9v99cT-36" style="edgeStyle=orthogonalEdgeStyle;rounded=0;orthogonalLoop=1;jettySize=auto;html=1;" edge="1" parent="1" source="mqvMD9u0rO13LE9v99cT-33">
          <mxGeometry relative="1" as="geometry">
            <mxPoint x="380" y="385" as="targetPoint" />
          </mxGeometry>
        </mxCell>
        <mxCell id="mqvMD9u0rO13LE9v99cT-33" value="_get_reference_points" style="text;html=1;align=center;verticalAlign=middle;resizable=0;points=[];autosize=1;strokeColor=#666666;fillColor=#f5f5f5;fontColor=#333333;" vertex="1" parent="1">
          <mxGeometry x="160" y="370" width="140" height="30" as="geometry" />
        </mxCell>
        <mxCell id="mqvMD9u0rO13LE9v99cT-35" style="edgeStyle=orthogonalEdgeStyle;rounded=0;orthogonalLoop=1;jettySize=auto;html=1;entryX=0.497;entryY=1.124;entryDx=0;entryDy=0;entryPerimeter=0;" edge="1" parent="1" source="mqvMD9u0rO13LE9v99cT-31" target="mqvMD9u0rO13LE9v99cT-33">
          <mxGeometry relative="1" as="geometry" />
        </mxCell>
        <mxCell id="mqvMD9u0rO13LE9v99cT-37" value="ref" style="text;html=1;align=center;verticalAlign=middle;resizable=0;points=[];autosize=1;strokeColor=#6c8ebf;fillColor=#dae8fc;" vertex="1" parent="1">
          <mxGeometry x="380" y="370" width="40" height="30" as="geometry" />
        </mxCell>
        <mxCell id="mqvMD9u0rO13LE9v99cT-38" value="Shape: (1, H_out, W_out, 1, 2)" style="text;html=1;align=center;verticalAlign=middle;resizable=0;points=[];autosize=1;strokeColor=none;fillColor=none;" vertex="1" parent="1">
          <mxGeometry x="439" y="370" width="190" height="30" as="geometry" />
        </mxCell>
        <mxCell id="mqvMD9u0rO13LE9v99cT-44" style="edgeStyle=orthogonalEdgeStyle;rounded=0;orthogonalLoop=1;jettySize=auto;html=1;" edge="1" parent="1" source="mqvMD9u0rO13LE9v99cT-39" target="mqvMD9u0rO13LE9v99cT-43">
          <mxGeometry relative="1" as="geometry" />
        </mxCell>
        <mxCell id="mqvMD9u0rO13LE9v99cT-39" value="_generate_dilation_grids" style="text;html=1;align=center;verticalAlign=middle;resizable=0;points=[];autosize=1;strokeColor=#666666;fillColor=#f5f5f5;fontColor=#333333;" vertex="1" parent="1">
          <mxGeometry x="240" y="495" width="150" height="30" as="geometry" />
        </mxCell>
        <mxCell id="mqvMD9u0rO13LE9v99cT-40" style="edgeStyle=orthogonalEdgeStyle;rounded=0;orthogonalLoop=1;jettySize=auto;html=1;" edge="1" parent="1" source="mqvMD9u0rO13LE9v99cT-28" target="mqvMD9u0rO13LE9v99cT-39">
          <mxGeometry relative="1" as="geometry">
            <mxPoint x="270" y="510" as="targetPoint" />
            <Array as="points">
              <mxPoint x="330" y="350" />
            </Array>
          </mxGeometry>
        </mxCell>
        <mxCell id="mqvMD9u0rO13LE9v99cT-41" style="edgeStyle=orthogonalEdgeStyle;rounded=0;orthogonalLoop=1;jettySize=auto;html=1;entryX=0.394;entryY=-0.012;entryDx=0;entryDy=0;entryPerimeter=0;" edge="1" parent="1" source="mqvMD9u0rO13LE9v99cT-31" target="mqvMD9u0rO13LE9v99cT-39">
          <mxGeometry relative="1" as="geometry">
            <mxPoint x="299" y="490" as="targetPoint" />
          </mxGeometry>
        </mxCell>
        <mxCell id="mqvMD9u0rO13LE9v99cT-42" value="参考点的grid" style="text;html=1;align=center;verticalAlign=middle;resizable=0;points=[];autosize=1;strokeColor=none;fillColor=none;" vertex="1" parent="1">
          <mxGeometry x="369" y="330" width="90" height="30" as="geometry" />
        </mxCell>
        <mxCell id="mqvMD9u0rO13LE9v99cT-43" value="dilation grids" style="text;html=1;align=center;verticalAlign=middle;resizable=0;points=[];autosize=1;strokeColor=#6c8ebf;fillColor=#dae8fc;" vertex="1" parent="1">
          <mxGeometry x="430" y="495" width="90" height="30" as="geometry" />
        </mxCell>
        <mxCell id="mqvMD9u0rO13LE9v99cT-45" value="计算采样点相对坐标" style="text;whiteSpace=wrap;html=1;" vertex="1" parent="1">
          <mxGeometry x="160" y="470" width="120" height="30" as="geometry" />
        </mxCell>
        <mxCell id="mqvMD9u0rO13LE9v99cT-46" value="计算参考坐标" style="text;html=1;align=center;verticalAlign=middle;resizable=0;points=[];autosize=1;strokeColor=none;fillColor=none;" vertex="1" parent="1">
          <mxGeometry x="180" y="320" width="100" height="30" as="geometry" />
        </mxCell>
        <mxCell id="mqvMD9u0rO13LE9v99cT-47" value="Shape: (1, 1, 1, group * kernel_h * kernel_w, 2)" style="text;html=1;align=center;verticalAlign=middle;resizable=0;points=[];autosize=1;strokeColor=none;fillColor=none;" vertex="1" parent="1">
          <mxGeometry x="520" y="495" width="270" height="30" as="geometry" />
        </mxCell>
        <mxCell id="mqvMD9u0rO13LE9v99cT-48" value="(group, kernel_h * kernel_w, 2)" style="text;html=1;align=center;verticalAlign=middle;resizable=0;points=[];autosize=1;strokeColor=none;fillColor=none;" vertex="1" parent="1">
          <mxGeometry x="410" y="450" width="190" height="30" as="geometry" />
        </mxCell>
        <mxCell id="mqvMD9u0rO13LE9v99cT-49" value="b h w gkk,2，2表示网格偏移" style="text;html=1;align=center;verticalAlign=middle;resizable=0;points=[];autosize=1;strokeColor=none;fillColor=none;" vertex="1" parent="1">
          <mxGeometry x="605" y="470" width="170" height="30" as="geometry" />
        </mxCell>
        <mxCell id="mqvMD9u0rO13LE9v99cT-50" value="当kernel=1 的时候，网格点为自己&amp;nbsp;&amp;nbsp;&lt;span style=&quot;font-family: &amp;quot;JetBrains Mono&amp;quot;, monospace; font-size: 9.8pt; background-color: rgb(30, 31, 34); color: rgb(188, 190, 196);&quot;&gt;sampling_locations = (ref + grid * offset_scale).repeat(N_, &lt;/span&gt;&lt;span style=&quot;font-family: &amp;quot;JetBrains Mono&amp;quot;, monospace; font-size: 9.8pt; background-color: rgb(30, 31, 34); color: rgb(42, 172, 184);&quot;&gt;1&lt;/span&gt;&lt;span style=&quot;font-family: &amp;quot;JetBrains Mono&amp;quot;, monospace; font-size: 9.8pt; background-color: rgb(30, 31, 34); color: rgb(188, 190, 196);&quot;&gt;, &lt;/span&gt;&lt;span style=&quot;font-family: &amp;quot;JetBrains Mono&amp;quot;, monospace; font-size: 9.8pt; background-color: rgb(30, 31, 34); color: rgb(42, 172, 184);&quot;&gt;1&lt;/span&gt;&lt;span style=&quot;font-family: &amp;quot;JetBrains Mono&amp;quot;, monospace; font-size: 9.8pt; background-color: rgb(30, 31, 34); color: rgb(188, 190, 196);&quot;&gt;, &lt;/span&gt;&lt;span style=&quot;font-family: &amp;quot;JetBrains Mono&amp;quot;, monospace; font-size: 9.8pt; background-color: rgb(30, 31, 34); color: rgb(42, 172, 184);&quot;&gt;1&lt;/span&gt;&lt;span style=&quot;font-family: &amp;quot;JetBrains Mono&amp;quot;, monospace; font-size: 9.8pt; background-color: rgb(30, 31, 34); color: rgb(188, 190, 196);&quot;&gt;, &lt;/span&gt;&lt;span style=&quot;font-family: &amp;quot;JetBrains Mono&amp;quot;, monospace; font-size: 9.8pt; background-color: rgb(30, 31, 34); color: rgb(42, 172, 184);&quot;&gt;1&lt;/span&gt;&lt;span style=&quot;font-family: &amp;quot;JetBrains Mono&amp;quot;, monospace; font-size: 9.8pt; background-color: rgb(30, 31, 34); color: rgb(188, 190, 196);&quot;&gt;)&lt;/span&gt;" style="text;html=1;align=center;verticalAlign=middle;resizable=0;points=[];autosize=1;strokeColor=none;fillColor=none;" vertex="1" parent="1">
          <mxGeometry x="220" y="530" width="710" height="30" as="geometry" />
        </mxCell>
        <mxCell id="mqvMD9u0rO13LE9v99cT-51" value="&lt;span style=&quot;font-family: &amp;quot;Microsoft YaHei&amp;quot;, Arial, Helvetica, sans-serif, 宋体; font-size: 15px; text-align: start; text-wrap: wrap; background-color: rgb(255, 255, 255);&quot;&gt;sampling_locations = sampling_locations + offset * offset_scale / spatial_norm&lt;/span&gt;" style="text;html=1;align=center;verticalAlign=middle;resizable=0;points=[];autosize=1;strokeColor=none;fillColor=none;" vertex="1" parent="1">
          <mxGeometry x="510" y="620" width="580" height="30" as="geometry" />
        </mxCell>
        <mxCell id="mqvMD9u0rO13LE9v99cT-52" value="总结：当kernel=1 的时候，则会进行重新排列漂移。" style="text;html=1;align=center;verticalAlign=middle;resizable=0;points=[];autosize=1;strokeColor=none;fillColor=none;" vertex="1" parent="1">
          <mxGeometry x="90" y="590" width="300" height="30" as="geometry" />
        </mxCell>
      </root>
    </mxGraphModel>
  </diagram>
</mxfile>
